<?xml version="1.0" encoding="UTF-8"?>
<!DOCTYPE svg PUBLIC "-//W3C//DTD SVG 1.1//EN" "http://www.w3.org/Graphics/SVG/1.1/DTD/svg11.dtd">
<svg xmlns="http://www.w3.org/2000/svg" version="1.1" width="5560px" height="6687px" style="shape-rendering:geometricPrecision; text-rendering:geometricPrecision; image-rendering:optimizeQuality; fill-rule:evenodd; clip-rule:evenodd" xmlns:xlink="http://www.w3.org/1999/xlink">
<g><path style="opacity:0.999" fill="#02b0e5" d="M 5557.5,-0.5 C 5557.83,-0.5 5558.17,-0.5 5558.5,-0.5C 5550.9,8.27606 5543.06,16.9427 5535,25.5C 4938.81,628.028 4342.97,1230.86 3747.5,1834C 3726.22,1830.91 3705.89,1824.57 3686.5,1815C 3670.85,1807.51 3655.52,1799.51 3640.5,1791C 3433.98,1659.59 3209.32,1575.25 2966.5,1538C 2645.32,1494.36 2337.32,1539.69 2042.5,1674C 1779.53,1796.26 1556.03,1969.76 1372,2194.5C 1203.82,2400.83 1084.49,2633.5 1014,2892.5C 926.972,3228.77 939.972,3561.1 1053,3889.5C 1070.39,3933.01 1087.39,3976.68 1104,4020.5C 1121.25,4067.01 1143.25,4111.01 1170,4152.5C 1186.28,4174.71 1203.28,4196.38 1221,4217.5C 1236.86,4237.87 1250.19,4259.87 1261,4283.5C 1263.94,4289.91 1265.6,4296.58 1266,4303.5C 1232.19,4338.31 1198.03,4372.81 1163.5,4407C 1059.71,4508.13 954.71,4607.79 848.5,4706C 824.317,4728 799.484,4749.16 774,4769.5C 748.205,4758.35 725.372,4742.85 705.5,4723C 678.613,4694.79 654.779,4664.29 634,4631.5C 600.508,4577.19 571.175,4520.52 546,4461.5C 496.728,4345.02 455.395,4225.69 422,4103.5C 387.363,3978.98 359.363,3852.98 338,3725.5C 290.789,3412.07 300.455,3100.41 367,2790.5C 475.046,2309.4 703.546,1897.23 1052.5,1554C 1167.56,1443.22 1291.56,1344.22 1424.5,1257C 1515.83,1203 1611.17,1157 1710.5,1119C 1911.34,1042.87 2117.67,986.538 2329.5,950C 2485.31,922.252 2642.31,905.919 2800.5,901C 3090.58,894.75 3369.58,947.083 3637.5,1058C 3689.76,1079.96 3741.43,1103.3 3792.5,1128C 3812.49,1137.41 3833.49,1142.91 3855.5,1144.5C 3882.18,1142.44 3906.85,1134.27 3929.5,1120C 3945.1,1110.73 3960.43,1101.06 3975.5,1091C 4086.55,1010.28 4197.89,929.946 4309.5,850C 4525.69,701.74 4741.36,552.74 4956.5,403C 5099.49,304.506 5242.82,206.506 5386.5,109C 5426.5,82.6667 5466.5,56.3333 5506.5,30C 5523.23,19.304 5540.23,9.13736 5557.5,-0.5 Z"/></g>
<g><path style="opacity:0.999" fill="#02b0e5" d="M 2.5,6686.5 C 1.5,6686.5 0.5,6686.5 -0.5,6686.5C -0.5,6686.17 -0.5,6685.83 -0.5,6685.5C 158.409,6523.09 317.909,6361.09 478,6199.5C 713.806,5962.03 949.973,5724.86 1186.5,5488C 1339.19,5336.31 1492.19,5184.97 1645.5,5034C 1693.9,4986.94 1742.9,4940.6 1792.5,4895C 1798.17,4890.67 1803.83,4886.33 1809.5,4882C 1811.17,4881.33 1812.83,4881.33 1814.5,4882C 1839.2,4890.68 1863.2,4901.01 1886.5,4913C 1938.49,4941.99 1989.82,4971.99 2040.5,5003C 2221.47,5089.1 2411.14,5147.43 2609.5,5178C 2769.13,5202.7 2928.46,5201.03 3087.5,5173C 3473.39,5105.01 3801.23,4930.84 4071,4650.5C 4276.41,4431.5 4423.08,4177.17 4511,3887.5C 4578.41,3663.7 4602.08,3435.36 4582,3202.5C 4563.29,2992.72 4503.29,2795.72 4402,2611.5C 4371.09,2559.33 4339.42,2507.67 4307,2456.5C 4300.53,2441.46 4295.36,2425.96 4291.5,2410C 4327.03,2369.14 4364.69,2330.14 4404.5,2293C 4446.32,2253.84 4489.32,2216.18 4533.5,2180C 4568.03,2144.47 4602.2,2108.64 4636,2072.5C 4676.87,2030.28 4720.7,1991.78 4767.5,1957C 4773.17,1953.5 4778.83,1950 4784.5,1946.5C 4796.04,1952.77 4806.71,1960.27 4816.5,1969C 4852.43,2003.75 4882.93,2042.58 4908,2085.5C 4945.51,2148.52 4978.85,2213.86 5008,2281.5C 5053.27,2387.05 5094.94,2494.05 5133,2602.5C 5184.08,2771.63 5216.41,2944.3 5230,3120.5C 5240.44,3266 5244.11,3411.66 5241,3557.5C 5230.77,3769.97 5189.77,3976.31 5118,4176.5C 5033.18,4409.87 4917.52,4625.53 4771,4823.5C 4573.58,5090.28 4335.41,5312.45 4056.5,5490C 3934.82,5561.58 3806.65,5619.08 3672,5662.5C 3456.57,5731.85 3236.07,5776.35 3010.5,5796C 2804.54,5814.99 2598.87,5812.32 2393.5,5788C 2287.44,5774.99 2183.11,5753.66 2080.5,5724C 1971.42,5692.78 1868.75,5647.45 1772.5,5588C 1754.15,5576.88 1734.32,5570.38 1713,5568.5C 1699.73,5569.36 1686.9,5572.19 1674.5,5577C 1658.61,5583.61 1643.28,5591.28 1628.5,5600C 1597.96,5618.55 1567.96,5637.88 1538.5,5658C 1450.85,5718.83 1362.85,5779.16 1274.5,5839C 979.635,6045.52 682.301,6248.52 382.5,6448C 296.174,6504.83 209.508,6561.16 122.5,6617C 83.5503,6641.98 43.5503,6665.14 2.5,6686.5 Z"/></g>
<g><path style="opacity:0.999" fill="#166785" d="M 3543.5,2660.5 C 3516.21,2646.19 3488.54,2632.35 3460.5,2619C 3267.32,2534.91 3069.32,2521.57 2866.5,2579C 2687.94,2634.81 2539.78,2734.98 2422,2879.5C 2285.93,3050.94 2211.6,3246.61 2199,3466.5C 2190.67,3640.59 2223,3806.59 2296,3964.5C 2312.86,3996.89 2329.19,4029.55 2345,4062.5C 2370.69,4109.4 2401.85,4152.23 2438.5,4191C 2441.38,4192.61 2444.38,4193.94 2447.5,4195C 2481.46,4232.97 2517.96,4268.13 2557,4300.5C 2570.95,4318.75 2585.11,4336.75 2599.5,4354.5C 2599.5,4355.17 2599.83,4355.5 2600.5,4355.5C 2601.48,4356.81 2602.48,4358.15 2603.5,4359.5C 2603.17,4359.83 2602.83,4360.17 2602.5,4360.5C 2437.94,4281.74 2277.94,4195.57 2122.5,4102C 2026.98,4044.58 1935.65,3981.25 1848.5,3912C 1812.11,3881.95 1777.94,3849.45 1746,3814.5C 1730.87,3796.9 1717.2,3778.23 1705,3758.5C 1622.61,3609.43 1581.77,3449.6 1582.5,3279C 1584.26,3050.06 1651.43,2842.89 1784,2657.5C 1879.99,2523.15 2000.49,2416.99 2145.5,2339C 2370.75,2223.92 2601.75,2210.92 2838.5,2300C 2884.58,2318.21 2928.92,2339.88 2971.5,2365C 2993.04,2375.94 3014.71,2386.61 3036.5,2397C 3141.17,2444.67 3245.83,2492.33 3350.5,2540C 3413.48,2568.99 3475.14,2600.32 3535.5,2634C 3547.84,2641.5 3559.84,2649.5 3571.5,2658C 3562.3,2660.12 3552.97,2660.96 3543.5,2660.5 Z"/></g>
<g><path style="opacity:1" fill="#179ac7" d="M 3543.5,2660.5 C 3625.7,2708.44 3699.2,2767.77 3764,2838.5C 3923.58,3021.16 4009.25,3234.49 4021,3478.5C 4029.68,3715.55 3966.01,3930.55 3830,4123.5C 3725.37,4267.74 3590.54,4373.57 3425.5,4441C 3250.93,4508.22 3072.93,4518.88 2891.5,4473C 2834.46,4457.65 2779.46,4436.99 2726.5,4411C 2683.39,4394.94 2641.39,4376.44 2600.5,4355.5C 2599.83,4355.5 2599.5,4355.17 2599.5,4354.5C 2585.11,4336.75 2570.95,4318.75 2557,4300.5C 2517.96,4268.13 2481.46,4232.97 2447.5,4195C 2444.38,4193.94 2441.38,4192.61 2438.5,4191C 2401.85,4152.23 2370.69,4109.4 2345,4062.5C 2329.19,4029.55 2312.86,3996.89 2296,3964.5C 2223,3806.59 2190.67,3640.59 2199,3466.5C 2211.6,3246.61 2285.93,3050.94 2422,2879.5C 2539.78,2734.98 2687.94,2634.81 2866.5,2579C 3069.32,2521.57 3267.32,2534.91 3460.5,2619C 3488.54,2632.35 3516.21,2646.19 3543.5,2660.5 Z"/></g>
</svg>
